<svg width="40" height="35" viewBox="0 0 40 35" fill="none" xmlns="http://www.w3.org/2000/svg">
<path d="M0.980446 26.2753C0.589924 26.6658 0.589924 27.299 0.980446 27.6895L7.34441 34.0535C7.73493 34.444 8.3681 34.444 8.75862 34.0535C9.14914 33.663 9.14914 33.0298 8.75862 32.6393L3.10177 26.9824L8.75862 21.3256C9.14915 20.935 9.14915 20.3019 8.75862 19.9113C8.3681 19.5208 7.73493 19.5208 7.34441 19.9113L0.980446 26.2753ZM39 25.9824L1.68755 25.9824L1.68755 27.9824L39 27.9824L39 25.9824Z" fill="#B0C4D4"/>
<path d="M39.7071 8.68953C40.0976 8.29901 40.0976 7.66584 39.7071 7.27532L33.3431 0.911356C32.9526 0.520832 32.3194 0.520832 31.9289 0.911356C31.5384 1.30188 31.5384 1.93505 31.9289 2.32557L37.5857 7.98242L31.9289 13.6393C31.5384 14.0298 31.5384 14.663 31.9289 15.0535C32.3194 15.444 32.9526 15.444 33.3431 15.0535L39.7071 8.68953ZM1.6875 8.98242L38.9999 8.98242L38.9999 6.98242L1.6875 6.98242L1.6875 8.98242Z" fill="#B0C4D4"/>
</svg>
