<svg width="164" height="146" viewBox="0 0 164 146" fill="none" xmlns="http://www.w3.org/2000/svg">
<path d="M125.324 7.09717L132.113 0.963887C132.544 0.573535 133.245 0.573535 133.676 0.963887C134.108 1.35389 134.108 1.98644 133.676 2.37642L127.669 7.80344L133.676 13.2303C134.108 13.6204 134.108 14.2529 133.676 14.6429C133.244 15.0331 132.544 15.0331 132.112 14.6429L125.324 8.50955C125.108 8.31445 125 8.05902 125 7.80347C125 7.54779 125.108 7.29218 125.324 7.09717Z" fill="#B0C4D4"/>
<path d="M0.323807 138.097L7.11259 131.964C7.54444 131.574 8.2446 131.574 8.67624 131.964C9.10792 132.354 9.10792 132.986 8.67624 133.376L2.66922 138.803L8.67607 144.23C9.10774 144.62 9.10774 145.253 8.67607 145.643C8.2444 146.033 7.54426 146.033 7.11241 145.643L0.323633 139.51C0.107796 139.314 -6.01165e-07 139.059 -6.23506e-07 138.803C-6.45858e-07 138.548 0.108005 138.292 0.323807 138.097Z" fill="#B0C4D4"/>
<path d="M1 138.311H162.5V8.31055H127.5" stroke="#B0C4D4" stroke-width="2"/>
</svg>
