<svg width="35" height="122" viewBox="0 0 35 122" fill="none" xmlns="http://www.w3.org/2000/svg">
<path d="M26.2089 121.182C26.5994 121.573 27.2326 121.573 27.6231 121.182L33.9871 114.818C34.3776 114.428 34.3776 113.794 33.9871 113.404C33.5966 113.013 32.9634 113.013 32.5729 113.404L26.916 119.061L21.2592 113.404C20.8686 113.013 20.2355 113.013 19.8449 113.404C19.4544 113.794 19.4544 114.428 19.8449 114.818L26.2089 121.182ZM25.916 1.4668L25.916 120.475L27.916 120.475L27.916 1.4668L25.916 1.4668Z" fill="#B0C4D4"/>
<path d="M8.62312 0.759286C8.2326 0.368761 7.59943 0.368761 7.20891 0.759286L0.844949 7.12325C0.454424 7.51377 0.454424 8.14694 0.844949 8.53746C1.23547 8.92798 1.86864 8.92798 2.25916 8.53746L7.91602 2.88061L13.5729 8.53746C13.9634 8.92798 14.5966 8.92798 14.9871 8.53746C15.3776 8.14694 15.3776 7.51377 14.9871 7.12325L8.62312 0.759286ZM8.91602 120.475L8.91602 1.46639L6.91602 1.46639L6.91602 120.475L8.91602 120.475Z" fill="#B0C4D4"/>
</svg>
