<svg width="164" height="146" viewBox="0 0 164 146" fill="none" xmlns="http://www.w3.org/2000/svg">
<path d="M38.1762 139.512L31.3874 145.645C30.9556 146.036 30.2554 146.036 29.8238 145.645C29.3921 145.255 29.3921 144.623 29.8238 144.233L35.8308 138.806L29.8239 133.379C29.3923 132.989 29.3923 132.356 29.8239 131.966C30.2556 131.576 30.9557 131.576 31.3876 131.966L38.1764 138.1C38.3922 138.295 38.5 138.55 38.5 138.806C38.5 139.062 38.392 139.317 38.1762 139.512Z" fill="#B0C4D4"/>
<path d="M163.176 8.5122L156.387 14.6455C155.956 15.0358 155.255 15.0358 154.824 14.6455C154.392 14.2555 154.392 13.6229 154.824 13.233L160.831 7.80594L154.824 2.37911C154.392 1.98894 154.392 1.35646 154.824 0.96645C155.256 0.576287 155.956 0.576287 156.388 0.96645L163.176 7.09983C163.392 7.29493 163.5 7.55035 163.5 7.80591C163.5 8.06158 163.392 8.3172 163.176 8.5122Z" fill="#B0C4D4"/>
<path d="M162.5 8.29883H1V138.299H36" stroke="#B0C4D4" stroke-width="2"/>
</svg>
