<svg width="116" height="307" viewBox="0 0 116 307" fill="none" xmlns="http://www.w3.org/2000/svg">
<path d="M0.323807 140.722L7.11259 134.589C7.54444 134.199 8.2446 134.199 8.67624 134.589C9.10792 134.979 9.10792 135.611 8.67624 136.001L2.66922 141.428L8.67607 146.855C9.10774 147.245 9.10774 147.878 8.67607 148.268C8.2444 148.658 7.54426 148.658 7.11241 148.268L0.323633 142.135C0.107796 141.939 -6.01165e-07 141.684 -6.23506e-07 141.428C-6.45858e-07 141.173 0.108005 140.917 0.323807 140.722Z" fill="#B0C4D4"/>
<path d="M115.676 202.722L108.887 196.589C108.456 196.199 107.755 196.199 107.324 196.589C106.892 196.979 106.892 197.611 107.324 198.001L113.331 203.428L107.324 208.855C106.892 209.245 106.892 209.878 107.324 210.268C107.756 210.658 108.456 210.658 108.888 210.268L115.676 204.135C115.892 203.939 116 203.684 116 203.428C116 203.173 115.892 202.917 115.676 202.722Z" fill="#B0C4D4"/>
<path d="M115.676 298.723L108.887 292.59C108.456 292.2 107.755 292.2 107.324 292.59C106.892 292.98 106.892 293.612 107.324 294.002L113.331 299.429L107.324 304.856C106.892 305.246 106.892 305.879 107.324 306.269C107.756 306.659 108.456 306.659 108.888 306.269L115.676 300.136C115.892 299.94 116 299.685 116 299.429C116 299.174 115.892 298.918 115.676 298.723Z" fill="#B0C4D4"/>
<path d="M115.676 102.723L108.887 96.5899C108.456 96.1995 107.755 96.1995 107.324 96.5899C106.892 96.9799 106.892 97.6124 107.324 98.0024L113.331 103.429L107.324 108.856C106.892 109.246 106.892 109.879 107.324 110.269C107.756 110.659 108.456 110.659 108.888 110.269L115.676 104.136C115.892 103.94 116 103.685 116 103.429C116 103.174 115.892 102.918 115.676 102.723Z" fill="#B0C4D4"/>
<path d="M115.676 6.7212L108.887 0.587911C108.456 0.197559 107.755 0.197558 107.324 0.587911C106.892 0.977917 106.892 1.61047 107.324 2.00044L113.331 7.42746L107.324 12.8543C106.892 13.2445 106.892 13.8769 107.324 14.2669C107.756 14.6571 108.456 14.6571 108.888 14.2669L115.676 8.13357C115.892 7.93847 116 7.68305 116 7.42749C116 7.17181 115.892 6.9162 115.676 6.7212Z" fill="#B0C4D4"/>
<path d="M0.5 141.796H77.5M77.5 141.796V103.296M77.5 141.796V203.296M114 7.2959H77.5V103.296M77.5 103.296H114M114 299.796H77.5V203.296M77.5 203.296H114" stroke="#B0C4D4" stroke-width="2"/>
</svg>
