<svg width="20" height="21" viewBox="0 0 20 21" fill="none" xmlns="http://www.w3.org/2000/svg">
<mask id="path-1-inside-1" fill="white">
<path fill-rule="evenodd" clip-rule="evenodd" d="M10 20.2988C15.5228 20.2988 20 15.8217 20 10.2988C20 4.77598 15.5228 0.298828 10 0.298828C4.47715 0.298828 0 4.77598 0 10.2988C0 15.8217 4.47715 20.2988 10 20.2988ZM10 17.2988C13.866 17.2988 17 14.1648 17 10.2988C17 6.43284 13.866 3.29883 10 3.29883C6.13401 3.29883 3 6.43284 3 10.2988C3 14.1648 6.13401 17.2988 10 17.2988Z"/>
</mask>
<path d="M18.19 10.2988C18.19 14.822 14.5232 18.4888 10 18.4888V22.1088C16.5225 22.1088 21.81 16.8213 21.81 10.2988H18.19ZM10 2.10883C14.5232 2.10883 18.19 5.77562 18.19 10.2988H21.81C21.81 3.77635 16.5225 -1.51117 10 -1.51117V2.10883ZM1.81 10.2988C1.81 5.77562 5.47679 2.10883 10 2.10883V-1.51117C3.47752 -1.51117 -1.81 3.77635 -1.81 10.2988H1.81ZM10 18.4888C5.47679 18.4888 1.81 14.822 1.81 10.2988H-1.81C-1.81 16.8213 3.47752 22.1088 10 22.1088V18.4888ZM15.19 10.2988C15.19 13.1652 12.8664 15.4888 10 15.4888V19.1088C14.8656 19.1088 18.81 15.1645 18.81 10.2988H15.19ZM10 5.10883C12.8664 5.10883 15.19 7.43247 15.19 10.2988H18.81C18.81 5.4332 14.8656 1.48883 10 1.48883V5.10883ZM4.81 10.2988C4.81 7.43247 7.13364 5.10883 10 5.10883V1.48883C5.13437 1.48883 1.19 5.4332 1.19 10.2988H4.81ZM10 15.4888C7.13364 15.4888 4.81 13.1652 4.81 10.2988H1.19C1.19 15.1645 5.13437 19.1088 10 19.1088V15.4888Z" fill="url(#paint0_linear)" mask="url(#path-1-inside-1)"/>
<defs>
<linearGradient id="paint0_linear" x1="13.5152" y1="0.246877" x2="-4.97203" y2="9.1934" gradientUnits="userSpaceOnUse">
<stop stop-color="#03E6B5"/>
<stop offset="1" stop-color="#00AE89"/>
</linearGradient>
</defs>
</svg>
