<svg width="56" height="57" viewBox="0 0 56 57" fill="none" xmlns="http://www.w3.org/2000/svg">
<path fill-rule="evenodd" clip-rule="evenodd" d="M2.47009 37.5495H4.15512V30.8742L6.78668 36.6942C7.08476 37.3938 7.5127 37.6532 8.34214 37.6532C9.17187 37.6532 9.57366 37.3938 9.88481 36.6942L12.5033 30.8742V37.5495H14.2014V30.8742C14.2014 30.2263 13.942 29.9146 13.3975 29.7461C12.1143 29.3573 11.2587 29.6943 10.87 30.5627L8.29072 36.3183L5.80181 30.5627C5.42587 29.6946 4.55721 29.3576 3.26119 29.7461C2.72982 29.9146 2.47038 30.226 2.47038 30.8742V37.5495H2.47009ZM15.6011 32.1185H17.2992V35.7869C17.2865 35.994 17.364 36.4609 18.2844 36.4734C18.7641 36.4865 21.9398 36.4734 21.9656 36.4734V32.0923H23.6637V38.0939C23.6637 39.5715 21.836 39.8955 20.9805 39.9085H15.6398V38.781H20.9932C22.0821 38.6642 21.9525 38.1201 21.9525 37.9385V37.4975H18.362C16.6897 37.4844 15.6139 36.7456 15.6011 35.9031C15.6011 35.8255 15.6398 32.144 15.6011 32.1185ZM52.0251 27.8667C50.9886 27.8408 50.1844 27.9445 49.5104 28.2298C49.3163 28.308 49.0049 28.308 48.9793 28.554C49.083 28.6572 49.0955 28.826 49.1864 28.9689C49.3419 29.2283 49.6144 29.5778 49.8605 29.7594C50.133 29.9671 50.4052 30.1743 50.6899 30.3559C51.1954 30.6667 51.7657 30.8483 52.2581 31.1595C52.5434 31.341 52.8284 31.5743 53.1137 31.769C53.2561 31.8727 53.347 32.0415 53.5286 32.106V32.0668C53.438 31.9505 53.4118 31.782 53.3214 31.6519C53.1916 31.5226 53.062 31.4055 52.9321 31.2762C52.5565 30.7707 52.0896 30.3297 51.5838 29.9671C51.169 29.6819 50.2617 29.2931 50.0932 28.8135L50.0676 28.7873C50.3523 28.7612 50.6896 28.6575 50.9618 28.5796C51.4028 28.4634 51.8043 28.489 52.2578 28.3725C52.4656 28.3205 52.6727 28.2557 52.8804 28.1909V28.0744C52.6471 27.8411 52.4786 27.53 52.2326 27.3097C51.5716 26.7394 50.8453 26.1819 50.0934 25.7154C49.6917 25.4562 49.1731 25.2874 48.7457 25.0675C48.5897 24.9896 48.3308 24.9507 48.2402 24.8211C48.0063 24.5361 47.8771 24.1602 47.7085 23.8229C47.3329 23.1099 46.9697 22.3194 46.6458 21.5676C46.4125 21.062 46.2696 20.5565 45.9849 20.09C44.6496 17.8863 43.1976 16.5511 40.9681 15.242C40.4888 14.9698 39.9185 14.853 39.309 14.7106C38.985 14.6976 38.6611 14.6717 38.3369 14.6586C38.1291 14.568 37.922 14.3216 37.7404 14.2048C37.0016 13.7383 35.0961 12.7272 34.5514 14.0622C34.2013 14.9047 35.0699 15.7342 35.368 16.1621C35.5888 16.4602 35.8735 16.7972 36.0295 17.1342C36.1199 17.3544 36.1457 17.588 36.2367 17.8213C36.4438 18.3916 36.6385 19.0266 36.9107 19.5583C37.053 19.8305 37.2085 20.1158 37.3901 20.3622C37.4938 20.5048 37.6753 20.5696 37.714 20.8029C37.5324 21.0623 37.5199 21.4511 37.4162 21.7753C36.9493 23.2401 37.1309 25.0547 37.7918 26.1305C37.9996 26.4544 38.492 27.1674 39.1532 26.8952C39.7366 26.6619 39.6067 25.9231 39.7752 25.2749C39.8145 25.1195 39.7883 25.0158 39.8659 24.9121V24.9379C40.0475 25.3008 40.229 25.6509 40.3975 26.0137C40.7993 26.6488 41.4995 27.31 42.0829 27.7508C42.3937 27.984 42.6401 28.3861 43.0288 28.5285V28.4893H43.0032C42.9254 28.3731 42.8086 28.321 42.7049 28.2301C42.4716 27.9968 42.2124 27.7115 42.0309 27.4524C41.4867 26.7267 41.0074 25.9228 40.5794 25.0933C40.3717 24.6915 40.1901 24.2508 40.0222 23.849C39.9437 23.6933 39.9437 23.46 39.8145 23.3825C39.6198 23.6675 39.3351 23.9141 39.1919 24.2639C38.9455 24.8211 38.9199 25.5082 38.8293 26.2211C38.777 26.2342 38.8032 26.2211 38.777 26.247C38.3627 26.1436 38.2198 25.7156 38.0644 25.3528C37.6756 24.4324 37.6106 22.9548 37.9476 21.8918C38.0382 21.6196 38.4275 20.764 38.2721 20.5048C38.1936 20.2585 37.9351 20.1161 37.7921 19.9215C37.6236 19.6751 37.4426 19.3642 37.3258 19.092C37.015 18.366 36.8596 17.5624 36.5223 16.8364C36.3662 16.4994 36.0943 16.1493 35.8738 15.8384C35.6275 15.4884 35.3558 15.242 35.1612 14.8274C35.0964 14.6848 35.0057 14.4515 35.1094 14.2961C35.135 14.1923 35.1873 14.1534 35.2904 14.1276C35.459 13.9849 35.9389 14.1665 36.1074 14.2441C36.5868 14.4384 36.9885 14.62 37.3903 14.8919C37.5719 15.0215 37.7666 15.2679 37.9999 15.3329H38.2724C38.6872 15.4236 39.1535 15.3588 39.5422 15.4753C40.2293 15.6958 40.8513 16.0197 41.4091 16.3698C43.107 17.4456 44.5073 18.9752 45.4532 20.8029C45.6087 21.101 45.6734 21.3732 45.8164 21.6843C46.0889 22.3197 46.4259 22.9676 46.6975 23.5899C46.97 24.1991 47.2292 24.8214 47.6179 25.3269C47.8126 25.5991 48.59 25.7415 48.9401 25.8841C49.1995 26.0006 49.601 26.1046 49.8349 26.247C50.2753 26.5192 50.716 26.8304 51.1309 27.1285C51.3381 27.2836 51.9865 27.6075 52.0251 27.8667Z" fill="#00678C"/>
<path fill-rule="evenodd" clip-rule="evenodd" d="M38.804 16.5996C38.5838 16.5996 38.4284 16.6255 38.2729 16.6644V16.6903H38.2985C38.4022 16.8977 38.5838 17.0403 38.7134 17.2216C38.8171 17.4291 38.908 17.6365 39.0118 17.8439L39.0373 17.8181C39.2189 17.6885 39.3098 17.4811 39.3098 17.1699C39.232 17.0793 39.2192 16.9883 39.1544 16.8977C39.0766 16.7681 38.908 16.7033 38.804 16.5996Z" fill="#00678C"/>
<path fill-rule="evenodd" clip-rule="evenodd" d="M24.96 37.5473H29.8338C30.4041 37.5473 30.9489 37.4311 31.3893 37.2234C32.1281 36.8864 32.4782 36.4329 32.4782 35.8367V34.5924C32.4782 34.113 32.0764 33.6589 31.2731 33.3481C30.8582 33.1926 30.3396 33.1017 29.8341 33.1017H27.7862C27.0991 33.1017 26.7752 32.894 26.6843 32.4408C26.6715 32.3891 26.6715 32.3371 26.6715 32.2853V31.5204C26.6715 31.4812 26.6715 31.4298 26.6843 31.378C26.7749 31.028 26.9565 30.937 27.5529 30.8725H32.5432V29.7444H27.7987C27.1116 29.7444 26.7488 29.7837 26.4248 29.8874C25.4266 30.1982 24.9859 30.691 24.9859 31.559V32.5448C24.9859 33.3091 25.8415 33.9576 27.2932 34.113C27.4486 34.1261 27.6171 34.1261 27.7856 34.1261H29.5358C29.6005 34.1261 29.665 34.1261 29.7168 34.1392C30.2484 34.1909 30.4817 34.2815 30.6371 34.4756C30.7408 34.5793 30.767 34.6702 30.767 34.787V35.7722C30.767 35.8884 30.6891 36.0447 30.5337 36.174C30.3777 36.3033 30.1313 36.3942 29.8074 36.4073C29.7426 36.4073 29.7043 36.4204 29.6389 36.4204H24.96V37.5473V37.5473ZM43.0291 35.5903C43.0291 36.744 43.8978 37.3919 45.6348 37.5217C45.8033 37.5348 45.9587 37.5473 46.1272 37.5473H50.5345V36.4198H46.0886C45.1028 36.4198 44.7272 36.1734 44.7272 35.5773V29.7441H43.0288V35.5903H43.0291V35.5903ZM33.5537 35.6418V31.6238C33.5537 30.5997 34.2794 29.9771 35.6928 29.7831C35.8482 29.77 36.0037 29.7569 36.1463 29.7569H39.3607C39.5292 29.7569 39.6721 29.77 39.8406 29.7831C41.2534 29.9771 41.9661 30.5997 41.9661 31.6238V35.6418C41.9661 36.4712 41.6683 36.9122 40.9678 37.2106L42.627 38.7137H40.67L39.3217 37.4956L37.9603 37.5734H36.1457C35.8479 37.5734 35.5106 37.5348 35.1606 37.4442C34.0853 37.1455 33.5537 36.5752 33.5537 35.6418V35.6418ZM35.3814 35.5517C35.3814 35.6034 35.4075 35.6548 35.4206 35.7202C35.5112 36.1865 35.9517 36.4459 36.6257 36.4459H38.1556L36.7558 35.1755H38.7128L39.944 36.2905C40.1779 36.1606 40.3203 35.9791 40.372 35.7458C40.385 35.6941 40.385 35.6296 40.385 35.5773V31.7272C40.385 31.6755 40.385 31.6241 40.372 31.5718C40.2813 31.1314 39.8409 30.8853 39.1797 30.8853H36.6257C35.8738 30.8853 35.3814 31.2092 35.3814 31.7272V35.5517ZM51.3125 37.5604H51.5588V36.6144H51.8828V36.4198H50.9755V36.6144H51.3125V37.5604V37.5604ZM53.1919 37.5604H53.4252V36.4198H53.0757L52.7904 37.1978L52.4795 36.4198H52.1425V37.5604H52.3627V36.6923H52.3758L52.6997 37.5604H52.8682L53.1922 36.6923V37.5604H53.1919V37.5604Z" fill="#CE8B2C"/>
</svg>
