<svg width="91" height="87" viewBox="0 0 91 87" fill="none" xmlns="http://www.w3.org/2000/svg">
<path d="M0.999992 79V80H-7.62939e-06V79H0.999992ZM90.7071 78.2929C91.0976 78.6834 91.0976 79.3166 90.7071 79.7071L84.3431 86.0711C83.9526 86.4616 83.3195 86.4616 82.9289 86.0711C82.5384 85.6805 82.5384 85.0474 82.9289 84.6569L88.5858 79L82.9289 73.3431C82.5384 72.9526 82.5384 72.3195 82.9289 71.9289C83.3195 71.5384 83.9526 71.5384 84.3431 71.9289L90.7071 78.2929ZM1.99999 0V79H-7.62939e-06V0H1.99999ZM0.999992 78H90V80H0.999992V78Z" fill="#AABDCC"/>
</svg>
