<svg width="97" height="81" viewBox="0 0 97 81" fill="none" xmlns="http://www.w3.org/2000/svg">
<path d="M89.7071 0.292893C89.3166 -0.0976311 88.6834 -0.0976311 88.2929 0.292893L81.9289 6.65685C81.5384 7.04738 81.5384 7.68054 81.9289 8.07107C82.3195 8.46159 82.9526 8.46159 83.3432 8.07107L89 2.41421L94.6569 8.07107C95.0474 8.46159 95.6805 8.46159 96.0711 8.07107C96.4616 7.68054 96.4616 7.04738 96.0711 6.65685L89.7071 0.292893ZM89 80V81H90V80H89ZM88 1V80H90V1H88ZM89 79H0V81H89V79Z" fill="#AABDCC"/>
</svg>
