<svg width="40" height="35" viewBox="0 0 40 35" fill="none" xmlns="http://www.w3.org/2000/svg">
<path d="M0.980446 26.2792C0.589924 26.6697 0.589924 27.3029 0.980446 27.6934L7.34441 34.0574C7.73493 34.4479 8.3681 34.4479 8.75862 34.0574C9.14914 33.6669 9.14914 33.0337 8.75862 32.6432L3.10177 26.9863L8.75862 21.3295C9.14915 20.9389 9.14915 20.3058 8.75862 19.9153C8.3681 19.5247 7.73493 19.5247 7.34441 19.9153L0.980446 26.2792ZM39 25.9863L1.68755 25.9863L1.68755 27.9863L39 27.9863L39 25.9863Z" fill="#B0C4D4"/>
<path d="M39.7071 8.69344C40.0976 8.30291 40.0976 7.66975 39.7071 7.27922L33.3431 0.915263C32.9526 0.524738 32.3194 0.524738 31.9289 0.915262C31.5384 1.30579 31.5384 1.93895 31.9289 2.32948L37.5857 7.98633L31.9289 13.6432C31.5384 14.0337 31.5384 14.6669 31.9289 15.0574C32.3194 15.4479 32.9526 15.4479 33.3431 15.0574L39.7071 8.69344ZM1.6875 8.98633L38.9999 8.98633L38.9999 6.98633L1.6875 6.98633L1.6875 8.98633Z" fill="#B0C4D4"/>
</svg>
