<svg width="164" height="146" viewBox="0 0 164 146" fill="none" xmlns="http://www.w3.org/2000/svg">
<path d="M38.1762 7.10108L31.3874 0.967794C30.9556 0.577441 30.2554 0.577441 29.8238 0.967793C29.3921 1.3578 29.3921 1.99035 29.8238 2.38032L35.8308 7.80734L29.8239 13.2342C29.3923 13.6243 29.3923 14.2568 29.8239 14.6468C30.2556 15.037 30.9557 15.037 31.3876 14.6468L38.1764 8.51345C38.3922 8.31835 38.5 8.06293 38.5 7.80738C38.5 7.5517 38.392 7.29608 38.1762 7.10108Z" fill="#B0C4D4"/>
<path d="M163.176 138.101L156.387 131.968C155.956 131.577 155.255 131.577 154.824 131.968C154.392 132.358 154.392 132.99 154.824 133.38L160.831 138.807L154.824 144.234C154.392 144.624 154.392 145.257 154.824 145.647C155.256 146.037 155.956 146.037 156.388 145.647L163.176 139.513C163.392 139.318 163.5 139.063 163.5 138.807C163.5 138.552 163.392 138.296 163.176 138.101Z" fill="#B0C4D4"/>
<path d="M162.5 138.314H1V8.31445H36" stroke="#B0C4D4" stroke-width="2"/>
</svg>
