<svg width="20" height="21" viewBox="0 0 20 21" fill="none" xmlns="http://www.w3.org/2000/svg">
<mask id="path-1-inside-1" fill="white">
<path fill-rule="evenodd" clip-rule="evenodd" d="M10 20.2988C15.5228 20.2988 20 15.8217 20 10.2988C20 4.77598 15.5228 0.298828 10 0.298828C4.47715 0.298828 0 4.77598 0 10.2988C0 15.8217 4.47715 20.2988 10 20.2988ZM10 17.2988C13.866 17.2988 17 14.1648 17 10.2988C17 6.43284 13.866 3.29883 10 3.29883C6.13401 3.29883 3 6.43284 3 10.2988C3 14.1648 6.13401 17.2988 10 17.2988Z"/>
</mask>
<path fill-rule="evenodd" clip-rule="evenodd" d="M10 20.2988C15.5228 20.2988 20 15.8217 20 10.2988C20 4.77598 15.5228 0.298828 10 0.298828C4.47715 0.298828 0 4.77598 0 10.2988C0 15.8217 4.47715 20.2988 10 20.2988ZM10 17.2988C13.866 17.2988 17 14.1648 17 10.2988C17 6.43284 13.866 3.29883 10 3.29883C6.13401 3.29883 3 6.43284 3 10.2988C3 14.1648 6.13401 17.2988 10 17.2988Z" fill="white"/>
<path d="M16 10.2988C16 13.6125 13.3137 16.2988 10 16.2988V24.2988C17.732 24.2988 24 18.0308 24 10.2988H16ZM10 4.29883C13.3137 4.29883 16 6.98512 16 10.2988H24C24 2.56684 17.732 -3.70117 10 -3.70117V4.29883ZM4 10.2988C4 6.98512 6.68629 4.29883 10 4.29883V-3.70117C2.26801 -3.70117 -4 2.56684 -4 10.2988H4ZM10 16.2988C6.68629 16.2988 4 13.6125 4 10.2988H-4C-4 18.0308 2.26801 24.2988 10 24.2988V16.2988ZM13 10.2988C13 11.9557 11.6569 13.2988 10 13.2988V21.2988C16.0751 21.2988 21 16.374 21 10.2988H13ZM10 7.29883C11.6569 7.29883 13 8.64197 13 10.2988H21C21 4.2237 16.0751 -0.701172 10 -0.701172V7.29883ZM7 10.2988C7 8.64197 8.34315 7.29883 10 7.29883V-0.701172C3.92487 -0.701172 -1 4.2237 -1 10.2988H7ZM10 13.2988C8.34315 13.2988 7 11.9557 7 10.2988H-1C-1 16.374 3.92487 21.2988 10 21.2988V13.2988Z" fill="url(#paint0_linear)" fill-opacity="0.8" mask="url(#path-1-inside-1)"/>
<defs>
<linearGradient id="paint0_linear" x1="0.318846" y1="10.2988" x2="19.5065" y2="10.2988" gradientUnits="userSpaceOnUse">
<stop stop-color="#0272D9"/>
<stop offset="0.953125" stop-color="#42A3FD"/>
</linearGradient>
</defs>
</svg>
